# xmcd
# Copyright (C) 1995-1998 Ti Kan
#
# Track frame offsets:
#       150
#       16560
#       35925
#       53835
#       69702
#       90085
#       110172
#       125755
#
# Disc length: 1911 seconds
#
# Revision: 0
# Processed by: cddbd v1.5.2PL0 Copyright (c) Steve Scherf et al.
# Submitted via: CD-Import v1.0
#
DISCID=68077508
DTITLE=Fisher - Fisher
DYEAR=1900
DGENRE=
TTITLE0=Babylon
TTITLE1=Sign Right Here
TTITLE2=Behind The Curtain
TTITLE3=Golden Age
TTITLE4=My Oh My
TTITLE5=Living In The Mines
TTITLE6=Lost In Translation
TTITLE7=Water And Bread
EXTD=
EXTT0=
EXTT1=
EXTT2=
EXTT3=
EXTT4=
EXTT5=
EXTT6=
EXTT7=
PLAYORDER=
